<svg xmlns="http://www.w3.org/2000/svg" viewBox="0 0 332.53 77.94"><title>panini-group-logo</title><path d="M351.2,551a5.46,5.46,0,0,1-5.47-5.45v-67A5.45,5.45,0,0,1,351.2,473H672.82a5.44,5.44,0,0,1,5.45,5.45v67a5.53,5.53,0,0,1-5.55,5.45H351.2Z" transform="translate(-345.73 -473.03)" style="fill:#231f20"/><path d="M672.72,475.38a3.5,3.5,0,0,1,3.24,3.08l-.06,67a3.56,3.56,0,0,1-3.26,3.1l-321.54,0a3.36,3.36,0,0,1-3-3.12v-67a3.32,3.32,0,0,1,3-3.08Z" transform="translate(-345.73 -473.03)" style="fill:#f7eb1c"/><path d="M671.89,526.36,454.56,526c-14-.14-28.54-.1-41.21-4.05a19.25,19.25,0,0,1-.46,3.48,6,6,0,0,0-1.73-2.9c-1.81-1.91-3.14,0-3.7-1.39-1-.84-2.72-.16-3.76.18a13.23,13.23,0,0,1-.2-4.53l5.47-6.9L406.7,508l3.06-3.26,1.37.72,7-5.11a1.65,1.65,0,0,0,.74-1.47,1.51,1.51,0,0,0-.56-1.17L412,493.6l-.64.24a62.57,62.57,0,0,1-6.5-3.34s.93-.87.36-1.75a1.36,1.36,0,0,0-1.55-.28l.18-.28a3.6,3.6,0,0,0,.4-1.69c-.56-2.13-2.66-3.22-4.63-3.48-1.57-.28-3.12.68-4-.7a1.18,1.18,0,0,1,0-1.09c.06-.34.32-.36.46-.7-1.27-.24-1.45.34-1.81.4-.48.34-.7-.24-.52-.7-1.75.64-2,.34-2.43-1a2.8,2.8,0,0,0-2.31-.81c-3,.3-3.64,4.08-6.36,4.81a1.76,1.76,0,0,1-1.39-.58,2.52,2.52,0,0,1-.56-2.66,14.08,14.08,0,0,0-2.68,1.39c-.3.12,0-.91-.81-.66a8.57,8.57,0,0,1-1.41,1.05,4,4,0,0,1-2.17.24c-2.68-1.09-4.37,1.53-6.18,3.24-.8.48-1.23.1-2-.46a6.52,6.52,0,0,0,1.09,2.43c.24.3.42.7-.06.93.84,1.19,2.27,1.47,3.36,2.31.3,1.81,1.35-.32,2.15.3-.18,2,1.51.08,2.37.93,2.17,1.35,4.11,3.24,6.82,3.3.28,1.41.64,0,1.91.12.36.32-.22,1,.3,1.39,2.17-.81,4.71.12,6.94-.34,2-.28,3.66-2,4.81-3.54a4.53,4.53,0,0,0,2.66,1.15v-.4a3.66,3.66,0,0,1,2.48-2.31l0,.1a1,1,0,0,0-.12,1.35,1.15,1.15,0,0,0,.34.28l-5.7,6.22,0-2H374.65v21.37l-.62.42c-.68,2-1.33-.36-2.94-.93-1.09-.32-3.3.46-5.13,1.37-4.15,2.29-5.65,3.62-6.94,6.66a52.83,52.83,0,0,1-7.3-.3v3.18c2.46-.32,4.91-.48,7.39-.58a5,5,0,0,0,1.39,1.91c1.15.46,1.27-1.17,2.31-2.09h5.45l.46,1.53-3.3,3,5.09,1.53a2.21,2.21,0,0,0,1.11-.26,37.46,37.46,0,0,0,8.67-5.78h6l5.17,4,1.71-2.17.72.38a7.12,7.12,0,0,1,3.12,3.44l-2.62,2.09s1.77.44,1.77.4l-2.15,3c-1,1.13-1.61,2.52-2.66,3.54a8,8,0,0,0-3.52-1.57h-1a2,2,0,1,0,0,4,2,2,0,0,0,2-1.75c.84-.26,1.47.42,2,1,.08.4-.18.93.34,1.17H405.7c-.46-1.37-1.15-1.55-2.11-2.33s-1.85-1.09-6.76-1.35a13.13,13.13,0,0,1,2.56-5.13l3.12.2V530.8s-1.77.78-1.81.76a32.07,32.07,0,0,0-4.21-3.46H400c.42.66.5,1.57,1.27,2,1.07,1,2.15-1.21,2.88.52a2.42,2.42,0,0,0,2.27.4c2.66,1.49,3.9.48,3.9.48,1-.58,1.13-.58,1.71-1.51a9.21,9.21,0,0,0,.87-1.91s.36,4.17.36,4.21a158,158,0,0,1,33.61-3.82l225-.93a10.09,10.09,0,0,1,.89-.72,8.94,8.94,0,0,1-.85-.42Zm-307.11-.28a11.46,11.46,0,0,1,3.06-2.48,14.4,14.4,0,0,0,.12,2.5Zm6.12,0a35.72,35.72,0,0,1,.84-5.7,10.86,10.86,0,0,0,2.88,1.33l0,3.42-1.71,1Zm3.62,2.54-.87.24c.22-.48.08-.74.28-.87l1.75,0a4.31,4.31,0,0,1-1.15.62Zm3.64-2.5-3.18,0a3.73,3.73,0,0,1,0-.64h4a3.69,3.69,0,0,1-.8.62Zm3.62.18.52-.78.62,0,1,.8Zm18.23-.12s-3.84,0-3.82,0S400,521,400.08,521s.6,4-.08,5.13Z" transform="translate(-345.73 -473.03)" style="fill:#231f20"/><path d="M438.62,526.52c.16.32-.08.62-.24.87-2.54.4-5.35.38-7.87.7a2.23,2.23,0,0,1,.81-1.85c2.68.18,4.85.22,7.3.28Z" transform="translate(-345.73 -473.03)" style="fill:#ed1c24"/><path d="M386,543.66a.76.76,0,0,1,.78-.78.78.78,0,0,1,.78.78.78.78,0,0,1-1.55,0Z" transform="translate(-345.73 -473.03)" style="fill:#00aeef"/><path d="M389,542.18l-.3.66c-1.07.3-.74-.89-2.43-.38h-.89a1.57,1.57,0,0,1,1.05-.76,2.89,2.89,0,0,1,2.56.48Z" transform="translate(-345.73 -473.03)" style="fill:#00aeef"/><path d="M398.43,536.62a21.25,21.25,0,0,0-2.72,5.35,8.15,8.15,0,0,0-1.25.32,5.69,5.69,0,0,0-2.72,2.33,53.25,53.25,0,0,1,5.11-8.27Z" transform="translate(-345.73 -473.03)" style="fill:#00aeef"/><path d="M395.51,544.63s-2.66,0-2.66,0c1-1.25,1.51-1.85,2.86-2a6.5,6.5,0,0,1,1.53.08,20.52,20.52,0,0,0-1.73,2Z" transform="translate(-345.73 -473.03)" style="fill:#00aeef"/><path d="M401.29,543c-.68.5-.62,1-.91,1.57h-3.92a4.86,4.86,0,0,1,2-1.95,15.22,15.22,0,0,1,2.78.38Z" transform="translate(-345.73 -473.03)" style="fill:#00aeef"/><path d="M404.15,544.61l-2.94,0c.16-.72.36-1.15.91-1.35.93.36,1.65.58,2,1.33Z" transform="translate(-345.73 -473.03)" style="fill:#00aeef"/><path d="M401.65,536a38.49,38.49,0,0,1-5.43-.76,23.74,23.74,0,0,1,5.43-3.18Z" transform="translate(-345.73 -473.03)" style="fill:#00aeef"/><path d="M399.84,531.95l-2,1.17a14.26,14.26,0,0,0-4-4.15l.85-1.11a12.81,12.81,0,0,1,5.21,4.09Z" transform="translate(-345.73 -473.03)" style="fill:#00aeef"/><path d="M364.54,525a12,12,0,0,0-2,1.85c-.46-1.07-1.25-2.23-.93-3.42a8.12,8.12,0,0,1,2.37-2s.2,1.81.54,3.54Z" transform="translate(-345.73 -473.03)" style="fill:#00aeef"/><path d="M360.78,524.29a7.24,7.24,0,0,0,1.17,3.26c-.32.56-.7.87-1.11,1.53-.66-.12-.89-1.27-1.09-1.81C359.51,526.16,359.91,525.43,360.78,524.29Z" transform="translate(-345.73 -473.03)" style="fill:#00aeef"/><path d="M371.14,518.77a29.89,29.89,0,0,0-1,9.5l-.52.4a32.14,32.14,0,0,1-.74-4.45,37,37,0,0,1,.44-5.37S370.54,518.41,371.14,518.77Z" transform="translate(-345.73 -473.03)" style="fill:#00aeef"/><path d="M367.88,522.62a20.37,20.37,0,0,0-2.62,1.69,16.58,16.58,0,0,1-.36-3.38,25.93,25.93,0,0,1,3.1-1.73Z" transform="translate(-345.73 -473.03)" style="fill:#00aeef"/><path d="M373.26,527.61a29.06,29.06,0,0,1-2.78,5.63l-3.42-1.05A28.29,28.29,0,0,1,373.26,527.61Z" transform="translate(-345.73 -473.03)" style="fill:#00aeef"/><path d="M381.31,525.49a23.08,23.08,0,0,1-9.36,7.2l1.37-3a10.63,10.63,0,0,0,3.18-1.37c1.31-1,2.25-1.81,3.64-2.86Z" transform="translate(-345.73 -473.03)" style="fill:#00aeef"/><polygon points="42.26 52.46 40.89 54.17 38.38 52.46 42.26 52.46" style="fill:#00a651"/><path d="M402.8,521.73l-1.61,1.91L401,520l1.51-2.13a20.42,20.42,0,0,0,.32,3.82Z" transform="translate(-345.73 -473.03)" style="fill:#00aeef"/><path d="M406.5,521.77a8.88,8.88,0,0,0-3.82,4.27l-1.67,0c.22-2.09,2.56-3.92,4.39-4.59.38-.08.91-.12,1.09.3Z" transform="translate(-345.73 -473.03)" style="fill:#00aeef"/><path d="M409.06,527.75c0,.24.06.58-.4.7s-.89-.84-.78-1.09C408.49,527.12,408.88,527.22,409.06,527.75Z" transform="translate(-345.73 -473.03)" style="fill:#00aeef"/><path d="M407.37,528c0,.18,0,.48-.3.46a.3.3,0,0,1-.4-.4c-.08-.24.18-.3.3-.46S407.31,527.83,407.37,528Z" transform="translate(-345.73 -473.03)" style="fill:#00aeef"/><path d="M404.31,527.75c.54.12,1.07.56,0,1C403.6,528.73,403.48,527.77,404.31,527.75Z" transform="translate(-345.73 -473.03)" style="fill:#00aeef"/><path d="M410.79,523.52c-.12.58-.58.8-1.45,1.05-.93.7-.4,1.81-2,1.55-.56-.38-.24-1.19-.28-1.73.24-.85.52-1.83,1.51-2.13a2.46,2.46,0,0,1,2.25,1.25Z" transform="translate(-345.73 -473.03)" style="fill:#00aeef"/><path d="M406,526.08l-2.11,0c-.06-1.39,3.16-3.72,3.16-3.72a9.84,9.84,0,0,0-1.05,3.74Z" transform="translate(-345.73 -473.03)" style="fill:#00aeef"/><path d="M411.87,526.14a1.9,1.9,0,0,1,0,1.61,1.56,1.56,0,0,1-1.45.4c-.58-.54-1.25-1.37-1.07-2.19a2.36,2.36,0,0,1,1.17-1c.66-.16,1.17.7,1.35,1.17Z" transform="translate(-345.73 -473.03)" style="fill:#00aeef"/><path d="M403.18,528.09a1.11,1.11,0,0,1-.81,1.15c-.48.1-.89,0-1.19-.72-.26-.5,0-.72,0-.72a2.06,2.06,0,0,1,2,.28Z" transform="translate(-345.73 -473.03)" style="fill:#00aeef"/><path d="M405.86,528.91c0,.08.06,1.19,0,1.19s-1.05-.38-1.17-.46c-.06-.4.52-.8,1.21-.74Z" transform="translate(-345.73 -473.03)" style="fill:#00aeef"/><path d="M408,529.38l-.3,1c-.18.3-1-.14-1.17-.85C406.62,529.22,408,529.08,408,529.38Z" transform="translate(-345.73 -473.03)" style="fill:#00aeef"/><path d="M409.92,530.56c-.4.36-1.41.48-1.65.2,0-.14.34-1.41.76-1.41C409.64,529.48,409.8,530.22,409.92,530.56Z" transform="translate(-345.73 -473.03)" style="fill:#00aeef"/><path d="M406,527.28a.65.65,0,0,1,0,.81l-.76-.3c-.2-.26.1-.64.72-.52Z" transform="translate(-345.73 -473.03)" style="fill:#00aeef"/><path d="M411.57,529a.85.85,0,0,1-.85.87.83.83,0,0,1-.68-1,2.25,2.25,0,0,1,1.53.12Z" transform="translate(-345.73 -473.03)" style="fill:#00aeef"/><path d="M425.88,525.65a17.58,17.58,0,0,1-1.79,3.36c-2.8.38-5,.7-7.57,1.21a46.89,46.89,0,0,1,3.3-5.72,47.92,47.92,0,0,0,6.06,1.15Z" transform="translate(-345.73 -473.03)" style="fill:#ed1c24"/><path d="M390.62,479.81a3.67,3.67,0,0,1,.12,2.44,14.48,14.48,0,0,0,2.17-.76c0,.42,0,.76.3.87l.93-.46a3.57,3.57,0,0,0,1.45,1.81c2,.46,4.85-.18,6.24,1.11.62.62,1.47,1.57,1.19,2.64-.48,1.63-4.17,3-6.16,4.87-.42.5-1.67-.48-2.29-1a8.06,8.06,0,0,1-5,3.9c-1.71.2-3.74-.06-5.39.18l-.16-1c-.87-.72-1,0-1.93.24-.4-1.23-.87-.38-1.59-.46-3-.52-6.14-4.55-7.65-3.44-.34-.08,0-.91-.54-1-.52-.34-1,.3-1.69.46.06-.76-1.59-1-2.8-1.95-.14-.42.36-.18.22-.6a2.62,2.62,0,0,1-1.11-1.37c2.7-.8,3.06-4.21,6.08-3.6a5.83,5.83,0,0,1,1.69.84,9.4,9.4,0,0,1,.68-.72c1,.36,1.19-.64,1.85-.93a.67.67,0,0,0,.4.81c.84-.18,1.15-1.25,2-1.39a4.25,4.25,0,0,0,1.85,2.54c3.44,1.09,4.59-3.4,7.45-4.47a2,2,0,0,1,1.69.42Z" transform="translate(-345.73 -473.03)" style="fill:#ed1c24"/><polygon points="48.12 51.58 29.7 51.56 29.7 24.73 48.14 24.75 48.12 51.58" style="fill:#f7941e"/><path d="M403.66,503.56a3.94,3.94,0,1,1,0-7.87,3.74,3.74,0,0,1,2.19.68l0,0,4-2.11c-2.11-1.13-4.19-2.09-6.28-3.28-.22-.22.87-.81.34-1.45-.7-.78-2.11.64-3,1.45-.46.58-.52,1.33,1.21,1.33l-6.68,7.3,10.38,7.75,2.9-3.06-2.46-1.25a15.59,15.59,0,0,1-2.68.5Z" transform="translate(-345.73 -473.03)" style="fill:#00aeef"/><polygon points="48.92 43.89 48.9 35.84 53.41 30.45 57.19 33.18 48.92 43.89" style="fill:#00a651"/><path d="M407.79,510l-16.48,20.87-4.05-3.1s1.85-2.27,1.89-2.29h5.57v-7.06l9-11.51Z" transform="translate(-345.73 -473.03)" style="fill:#ed1c24"/><polygon points="31.35 38.05 31.33 33.18 35.14 30.87 38.72 32.94 42.44 30.99 46.3 33.12 46.31 37.93 42.7 40.21 42.64 44.96 38.66 47.01 34.59 44.7 34.61 40.03 31.35 38.05" style="fill:#231f20"/><path d="M417.31,499.82c-.4.34-6.34,4.49-6.34,4.49l-4.73-2.43a3.22,3.22,0,0,1-2.52.81,3.1,3.1,0,1,1,2.09-5.41l5.8-2.76,5.49,3.38s.84.5.84,1a1.46,1.46,0,0,1-.62,1Z" transform="translate(-345.73 -473.03)" style="fill:#00aeef"/><polygon points="39.06 37.67 39.06 33.57 42.42 31.8 45.52 33.53 45.52 37.63 42.38 39.48 39.06 37.67" style="fill:#fff"/><polygon points="32.14 37.61 32.14 33.57 35.22 31.82 38.2 33.59 38.2 37.63 35.2 39.5 32.14 37.61" style="fill:#fff"/><polygon points="35.42 44.35 35.4 40.31 38.64 38.42 41.94 40.29 41.94 44.45 38.64 46.18 35.42 44.35" style="fill:#fff"/><path d="M401.27,499.63a2.41,2.41,0,1,1,2.41,2.41A2.4,2.4,0,0,1,401.27,499.63Z" transform="translate(-345.73 -473.03)" style="fill:#231f20"/><path d="M402.15,499.59a1.54,1.54,0,1,1,1.53,1.55A1.55,1.55,0,0,1,402.15,499.59Z" transform="translate(-345.73 -473.03)" style="fill:#00aeef"/><path d="M410.81,499.86a.85.85,0,0,1-1.71,0v-2a.86.86,0,0,1,1.71,0Z" transform="translate(-345.73 -473.03)" style="fill:#231f20"/><path d="M411.23,498.83h0v-2a.87.87,0,0,1,1.73,0V501a.85.85,0,0,1-.85.85.88.88,0,0,1-.89-.85v-2.15Z" transform="translate(-345.73 -473.03)" style="fill:#231f20"/><path d="M415.15,499.86a.85.85,0,0,1-1.71,0v-2a.86.86,0,0,1,.85-.78.85.85,0,0,1,.85.78Z" transform="translate(-345.73 -473.03)" style="fill:#231f20"/><path d="M388.79,507.82a.59.59,0,0,0-.4-.12h-.68v1h.68a.58.58,0,0,0,.4-.12.49.49,0,0,0,.14-.4.46.46,0,0,0-.14-.38Zm.56,1.25a1.3,1.3,0,0,1-.89.26h-.74v1.25H387V507.1h1.51a1.25,1.25,0,0,1,.84.28,1.28,1.28,0,0,1,0,1.69Z" transform="translate(-345.73 -473.03)" style="fill:none"/><polygon points="33.97 37.55 33.97 34.09 36.52 34.09 36.52 34.71 34.69 34.71 34.69 35.44 36.36 35.44 36.36 36.04 34.69 36.04 34.69 36.93 36.59 36.93 36.59 37.55 33.97 37.55" style="fill:#231f20"/><path d="M385.05,513.74h1.15v3.48h-.74v-2.9l-.72,2.9H384l-.72-2.9v2.9h-.74v-3.48h1.15l.7,2.72Z" transform="translate(-345.73 -473.03)" style="fill:#231f20"/><path d="M388.79,507.82a.59.59,0,0,0-.4-.12h-.68v1h.68a.58.58,0,0,0,.4-.12.49.49,0,0,0,.14-.4.46.46,0,0,0-.14-.38Zm.56,1.25a1.3,1.3,0,0,1-.89.26h-.74v1.25H387V507.1h1.51a1.25,1.25,0,0,1,.84.28,1.28,1.28,0,0,1,0,1.69Z" transform="translate(-345.73 -473.03)" style="fill:#231f20"/><path d="M565.46,511.45V517l21.49,0v-5.55l-3.82,0a1,1,0,0,1-1-1V493.34a1,1,0,0,1,1-1h3.82v-5.49H565.48l0,5.49h4a1,1,0,0,1,1,1v17.11a1,1,0,0,1-1,1Z" transform="translate(-345.73 -473.03)" style="fill:#231f20"/><path d="M638.85,511.45V517l21.49,0v-5.55l-3.82,0a1,1,0,0,1-1-1V493.34a1,1,0,0,1,1-1h3.82v-5.49l-21.47,0,0,5.49h4a1,1,0,0,1,1,1v17.11a1,1,0,0,1-1,1Z" transform="translate(-345.73 -473.03)" style="fill:#231f20"/><path d="M554.53,510.46V493.34a1.05,1.05,0,0,1,1.05-1h3.82v-5.47l-20.49,0v5.49h4a1,1,0,0,1,1,1v6l-11.11-12.48H518.41c.06.06,0,5.47,0,5.47h2.11l1.89,0a1,1,0,0,1,1,1v17.11a1,1,0,0,1-1,1h-4V517h20.51l0-5.49,5.23,5.55,15.29,0v-5.59l-3.82,0a1,1,0,0,1-1.09-1Zm-15.74,1h0l-3.74,0a1,1,0,0,1-1-1V506.2l4.75,5.25.06,0Z" transform="translate(-345.73 -473.03)" style="fill:#231f20"/><path d="M628,510.46V493.34a1.05,1.05,0,0,1,1.05-1h3.82v-5.47l-20.49,0v5.49h4a1,1,0,0,1,1,1v6l-11.11-12.48-14.43,0c0,.06,0,5.47,0,5.47H594l1.89,0a1,1,0,0,1,1,1v17.11a1,1,0,0,1-1,1h-4V517h20.51l0-5.49,5.21,5.55h15.29v-5.59l-3.82,0a1.08,1.08,0,0,1-1.07-1Zm-15.74,1h0l-3.74,0a1,1,0,0,1-1-1V506.2l4.75,5.25.06,0Z" transform="translate(-345.73 -473.03)" style="fill:#231f20"/><path d="M497.5,511.51l-2.39,0V517l20,0v-5.52l-2.6,0c-.87-.12-2.27.34-2.58-.72L503,486.89H486.27L479,510.76c-.34,1.05-1.73.58-2.58.68h-2.7l0,5.55,20,0v-5.49l-1.85,0a1.18,1.18,0,0,1-1.29-1.15l.91-3h6.4l.93,3a1.23,1.23,0,0,1-1.33,1.15Zm-2.92-14,1.41,4.29h-2.8Z" transform="translate(-345.73 -473.03)" style="fill:#231f20"/><path d="M472.59,489.37a5.52,5.52,0,0,0-4.39-2.52h-27v5.49l1.93,0H445a1,1,0,0,1,1,1v17.13a1,1,0,0,1-1,1l-3.8,0V517h22v-5.57h-4.09a1,1,0,0,1-1-1v-3.14h10.69a4.67,4.67,0,0,0,4.63-4.91v-9.54a5.87,5.87,0,0,0-.81-3.5Zm-14.53,2.94h2.37a1,1,0,0,1,1,1l0,7.08a1,1,0,0,1-1,1h-2.37Z" transform="translate(-345.73 -473.03)" style="fill:#231f20"/><path d="M557.71,513.12l-2.15,0a2.71,2.71,0,0,1-2.72-2.72V493.37a2.73,2.73,0,0,1,2.72-2.72h2.17V488.5l-17.09,0,0,2.15,2.29,0a2.71,2.71,0,0,1,2.72,2.72v10.3l-13.52-15.17h-12v2.17h2.33a2.71,2.71,0,0,1,2.72,2.72V510.4a2.7,2.7,0,0,1-2.72,2.7h-2.35l0,2.17H537.2l0-2.17-2.19,0a2.71,2.71,0,0,1-2.72-2.72v-3h0l0-5.53,12.6,13.36,12.84,0Z" transform="translate(-345.73 -473.03)" style="fill:#ed1c24"/><path d="M631.18,513.12l-2.15,0a2.71,2.71,0,0,1-2.72-2.72V493.37a2.71,2.71,0,0,1,2.72-2.72h2.17V488.5l-17.09,0,0,2.15,2.29,0a2.71,2.71,0,0,1,2.72,2.72v10.3l-13.52-15.17h-12v2.17h2.33a2.71,2.71,0,0,1,2.72,2.72V510.4a2.7,2.7,0,0,1-2.72,2.7h-2.35l0,2.17h17.09l0-2.17-2.17,0a2.71,2.71,0,0,1-2.72-2.72v-3h0l0-5.53,12.6,13.36,12.84,0Z" transform="translate(-345.73 -473.03)" style="fill:#ed1c24"/><path d="M567.17,513.14l0,2.17h18.07v-2.19l-2.17,0a2.74,2.74,0,0,1-2.72-2.74V493.34a2.71,2.71,0,0,1,2.72-2.72l2.15,0v-2.17H567.15v2.17h2.29a2.71,2.71,0,0,1,2.72,2.72v17.06a2.71,2.71,0,0,1-2.72,2.72Z" transform="translate(-345.73 -473.03)" style="fill:#ed1c24"/><path d="M640.58,513.14l0,2.17,18.07,0v-2.19l-2.19,0a2.74,2.74,0,0,1-2.72-2.74V493.37a2.71,2.71,0,0,1,2.72-2.72l2.17,0V488.5H640.56v2.17h2.29a2.71,2.71,0,0,1,2.72,2.72v17.06a2.71,2.71,0,0,1-2.72,2.72Z" transform="translate(-345.73 -473.03)" style="fill:#ed1c24"/><path d="M471.14,490.76a4.22,4.22,0,0,0-3.36-2.29H442.84v2.17H445a2.71,2.71,0,0,1,2.72,2.72v17.06a2.73,2.73,0,0,1-2.72,2.72l-2.17,0v2.19l18.61,0v-2.17H459a2.66,2.66,0,0,1-2.66-2.72l0-4.75s12,.2,13.24-.54a3.48,3.48,0,0,0,1.81-2.66V492Zm-10.69,12.32-4.08,0V490.64h4.05a2.71,2.71,0,0,1,2.72,2.72l0,7a2.7,2.7,0,0,1-2.72,2.72Z" transform="translate(-345.73 -473.03)" style="fill:#ed1c24"/><path d="M511,513.12a2.74,2.74,0,0,1-2.58-1.65l-6.6-23H487.56c-1.05,3.18-4.81,15.92-6.32,21l-.58,2a2.74,2.74,0,0,1-2.58,1.65h-2.54l-.12,0v2.17h16.66l0-2.19h-.24a2.76,2.76,0,0,1-3-2.74l.26-1,1.17-3.76h8.87l1.43,4.75a2.8,2.8,0,0,1-3,2.74l-.78,0,0,2.25h16.76v-2.27Zm-12.74-9.58H491l-.12-.12,3.64-11.51,3.7,11.51Z" transform="translate(-345.73 -473.03)" style="fill:#ed1c24"/></svg>